#!OML:ASF X:\für Bonn\!DataBase\2005_08_12_Daniel\c3d\Daniel.ASF
:FULLY-SPECIFIED
:DEGREES
1813
root -3.71927 17.1005 -1.33688 -63.8861 -80.8314 56.4262
lowerback 15.6012 -1.90142 -8.40754
upperback 5.50591 -4.2344 -3.3187
thorax -2.51723 -2.28577 1.96104
lowerneck -2.93883 2.37023 -5.25116
upperneck -1.04936 3.29715 0.214717
head 0.0732629 1.65616 0.962541
rclavicle 4.12478e-014 1.03368e-014
rhumerus -31.3402 3.06867 -93.1831
rradius 22.2061
rwrist 11.097
rhand -18.2874 18.5461
rfingers 7.12502
rthumb 7.99293 -11.2827
lclavicle 4.12478e-014 1.03368e-014
lhumerus -21.2472 9.61303 81.904
lradius 27.7866
lwrist -6.57109
lhand -12.3201 -0.139409
lfingers 7.12502
lthumb 13.7485 29.3864
rfemur -7.46901 -1.47848 4.42056
rtibia 35.5109
rfoot -20.4099 -0.9435
rtoes -16.642
lfemur -4.48104 -23.319 -32.2075
ltibia 34.3884
lfoot -28.39 7.88112
ltoes 1.62111
1814
root -3.73289 17.1016 -1.33205 -63.4611 -80.8824 55.9658
lowerback 15.4534 -1.91893 -8.3792
upperback 5.50013 -4.23403 -3.3109
thorax -2.44594 -2.28713 1.94544
lowerneck -2.9602 2.39756 -5.2084
upperneck -0.961311 3.33598 0.263898
head 0.102706 1.67458 0.972195
rclavicle 2.00773e-014 1.66979e-014
rhumerus -31.2255 3.04117 -93.2161
rradius 22.1573
rwrist 11.3406
rhand -18.414 18.2661
rfingers 7.12502
rthumb 7.87073 -11.5674
lclavicle 2.00773e-014 1.66979e-014
lhumerus -21.1332 8.92882 82.126
lradius 28.6555
lwrist -5.54543
lhand -12.7008 -0.226115
lfingers 7.12502
lthumb 13.3816 29.3241
rfemur -7.14097 -1.27366 4.55594
rtibia 35.142
rfoot -20.5056 -1.19621
rtoes -16.724
lfemur -4.28657 -23.8241 -32.3098
ltibia 34.3667
lfoot -28.6259 8.28808
ltoes 1.6354
1815
root -3.74604 17.105 -1.32933 -63.0069 -80.9255 55.4697
lowerback 15.322 -1.93075 -8.36478
upperback 5.49535 -4.23054 -3.305
thorax -2.3817 -2.2869 1.93587
lowerneck -2.93069 2.40087 -5.15586
upperneck -0.901986 3.33881 0.283871
head 0.116505 1.67531 0.969702
rclavicle 2.69353e-014 -5.96354e-015
rhumerus -31.1187 2.99269 -93.2334
rradius 22.1191
rwrist 11.5507
rhand -18.5336 18.0504
rfingers 7.12502
rthumb 7.75534 -11.7874
lclavicle 2.69353e-014 -5.96354e-015
lhumerus -21.0094 8.35632 82.3393
lradius 29.4776
lwrist -4.65459
lhand -13.0184 -0.3446
lfingers 7.12502
lthumb 13.0755 29.2255
rfemur -6.77233 -1.05615 4.70526
rtibia 34.7233
rfoot -20.5952 -1.52173
rtoes -16.9547
lfemur -4.10842 -24.171 -32.3765
ltibia 34.3357
lfoot -28.7652 8.58733
ltoes 1.5893
1816
root -3.7587 17.1082 -1.32826 -62.5241 -81.0022 54.9531
lowerback 15.1999 -1.93667 -8.32447
upperback 5.47876 -4.21664 -3.29603
thorax -2.33762 -2.27991 1.9147
lowerneck -2.82115 2.4085 -5.06446
upperneck -0.881361 3.3411 0.265085
head 0.10638 1.67622 0.946748
rclavicle -2.32578e-014 -3.37934e-014
rhumerus -30.9645 2.71637 -93.1746
rradius 21.9712
rwrist 11.8755
rhand -18.5601 17.9941
rfingers 7.12502
rthumb 7.7298 -11.8446
lclavicle -2.32578e-014 -3.37934e-014
lhumerus -20.9306 7.89631 82.5153
lradius 30.29
lwrist -3.90861
lhand -13.3202 -0.514652
lfingers 7.12502
lthumb 12.7845 29.0739
rfemur -6.3922 -0.724439 4.91786
rtibia 34.2526
rfoot -20.6833 -1.91563
rtoes -16.9676
lfemur -3.95921 -24.3829 -32.3719
ltibia 34.2994
lfoot -28.8264 8.8367
ltoes 1.47809
1817
root -3.7719 17.1105 -1.32927 -61.9832 -81.0586 54.3893
lowerback 15.0694 -1.94714 -8.31416
upperback 5.46437 -4.21179 -3.28116
thorax -2.28303 -2.27814 1.91701
lowerneck -2.72474 2.41121 -4.99299
upperneck -0.869807 3.33795 0.242096
head 0.0955567 1.67448 0.925978
rclavicle -1.36167e-014 -4.53229e-014
rhumerus -30.8673 2.72638 -93.1794
rradius 21.9288
rwrist 11.9171
rhand -18.5359 17.9174
rfingers 7.12502
rthumb 7.75308 -11.9205
lclavicle -1.36167e-014 -4.53229e-014
lhumerus -20.8331 7.58521 82.6915
lradius 31.0334
lwrist -3.28279
lhand -13.5833 -0.614676
lfingers 7.12502
lthumb 12.5309 28.9896
rfemur -5.99642 -0.374579 5.13775
rtibia 33.746
rfoot -20.7611 -2.35452
rtoes -17.0976
lfemur -3.85206 -24.414 -32.3187
ltibia 34.2589
lfoot -28.802 8.94161
ltoes 1.302
1818
root -3.7851 17.1141 -1.33093 -61.2974 -81.1351 53.6674
lowerback 14.9648 -1.96045 -8.27144
upperback 5.44518 -4.2089 -3.26296
thorax -2.24947 -2.27601 1.90694
lowerneck -2.6095 2.41306 -4.93126
upperneck -0.863207 3.33306 0.235052
head 0.0797424 1.67212 0.911524
rclavicle 1.25234e-014 -2.8625e-014
rhumerus -30.7858 2.99184 -93.2577
rradius 21.8915
rwrist 11.6696
rhand -18.4525 17.9107
rfingers 7.12502
rthumb 7.83359 -11.9242
lclavicle 1.25234e-014 -2.8625e-014
lhumerus -20.7521 7.25581 82.8606
lradius 31.7262
lwrist -2.58732
lhand -13.822 -0.747045
lfingers 7.12502
lthumb 12.3008 28.8712
rfemur -5.56347 0.0153729 5.40158
rtibia 33.2144
rfoot -20.8537 -2.81429
rtoes -17.1481
lfemur -3.76715 -24.2317 -32.169
ltibia 34.2092
lfoot -28.6544 8.83805
ltoes 1.06761
1819
root -3.79957 17.1182 -1.33396 -60.6889 -81.1995 53.0495
lowerback 14.8195 -1.96797 -8.27768
upperback 5.43177 -4.19929 -3.22363
thorax -2.18295 -2.27241 1.94234
lowerneck -2.54465 2.4132 -4.90186
upperneck -0.843771 3.3293 0.201535
head 0.0760919 1.66983 0.895214
rclavicle -4.37326e-015 1.11319e-014
rhumerus -30.7298 3.322 -93.3012
rradius 21.903
rwrist 11.4041
rhand -18.3409 17.8947
rfingers 7.12502
rthumb 7.94128 -11.9361
lclavicle -4.37326e-015 1.11319e-014
lhumerus -20.636 7.09909 83.0581
lradius 32.3575
lwrist -2.07322
lhand -14.0005 -0.855096
lfingers 7.12502
lthumb 12.1286 28.7733
rfemur -5.15376 0.47424 5.66538
rtibia 32.6824
rfoot -20.9752 -3.33185
rtoes -17.1862
lfemur -3.70384 -23.9954 -31.9978
ltibia 34.138
lfoot -28.5183 8.62973
ltoes 0.996349
1820
root -3.81147 17.1239 -1.33707 -60.0328 -81.2741 52.3596
lowerback 14.7234 -1.96941 -8.23129
upperback 5.42982 -4.18205 -3.21745
thorax -2.13812 -2.26447 1.91538
lowerneck -2.49407 2.39501 -4.82213
upperneck -0.827058 3.30091 0.181496
head 0.0751903 1.65532 0.874706
rclavicle 2.92213e-014 3.33958e-014
rhumerus -30.6753 3.52859 -93.3403
rradius 21.9017
rwrist 11.2449
rhand -18.2386 17.9808
rfingers 7.12502
rthumb 8.04006 -11.8463
lclavicle 2.92213e-014 3.33958e-014
lhumerus -20.4933 6.90468 83.2143
lradius 32.9258
lwrist -1.59112
lhand -14.164 -0.919273
lfingers 7.12502
lthumb 11.971 28.7184
rfemur -4.72608 0.94632 5.95658
rtibia 32.1686
rfoot -21.0946 -3.89005
rtoes -17.2808
lfemur -3.62801 -23.6429 -31.7811
ltibia 34.0347
lfoot -28.2842 8.32687
ltoes 0.982703
1821
root -3.82235 17.133 -1.34153 -59.2152 -81.3382 51.5329
lowerback 14.6328 -1.97838 -8.21359
upperback 5.4161 -4.17765 -3.1798
thorax -2.10277 -2.26215 1.93975
lowerneck -2.45834 2.38105 -4.80219
upperneck -0.803472 3.28019 0.145635
head 0.0779344 1.64441 0.859721
rclavicle 2.22639e-014 2.82274e-014
rhumerus -30.6406 3.72425 -93.3097
rradius 21.8957
rwrist 11.1959
rhand -18.0963 18.1021
rfingers 7.12502
rthumb 8.17743 -11.7196
lclavicle 2.22639e-014 2.82274e-014
lhumerus -20.3687 6.83312 83.405
lradius 33.4708
lwrist -1.22394
lhand -14.258 -0.931604
lfingers 7.12502
lthumb 11.8803 28.7113
rfemur -4.34509 1.46755 6.2669
rtibia 31.6902
rfoot -21.2404 -4.4985
rtoes -17.255
lfemur -3.59433 -23.2608 -31.5175
ltibia 33.9016
lfoot -27.9941 7.96824
ltoes 0.966702
1822
root -3.83189 17.142 -1.34618 -58.4445 -81.4008 50.742
lowerback 14.5562 -1.97984 -8.21014
upperback 5.42434 -4.16637 -3.13446
thorax -2.05048 -2.25835 1.97891
lowerneck -2.45102 2.36274 -4.79181
upperneck -0.811057 3.25462 0.0976814
head 0.0759668 1.63137 0.84269
rclavicle 2.71341e-014 -3.93594e-014
rhumerus -30.6285 4.03006 -93.2859
rradius 21.9637
rwrist 11.0803
rhand -17.9255 18.135
rfingers 7.12502
rthumb 8.34224 -11.6803
lclavicle 2.71341e-014 -3.93594e-014
lhumerus -20.2089 6.79425 83.6182
lradius 33.9284
lwrist -0.934808
lhand -14.3467 -0.994682
lfingers 7.12502
lthumb 11.7948 28.6532
rfemur -3.97236 2.08323 6.59403
rtibia 31.25
rfoot -21.45 -5.17666
rtoes -17.3657
lfemur -3.5484 -22.8898 -31.2639
ltibia 33.7518
lfoot -27.6821 7.60383
ltoes 1.13306
1823
root -3.83751 17.151 -1.351 -57.7165 -81.4506 50.0032
lowerback 14.543 -1.98457 -8.21336
upperback 5.40365 -4.16947 -3.10401
thorax -2.06234 -2.25819 2.01299
lowerneck -2.47871 2.35038 -4.73482
upperneck -0.755709 3.23893 0.0321338
head 0.0998034 1.62212 0.813535
rclavicle 3.99557e-014 -2.10712e-014
rhumerus -30.6422 4.25446 -93.2557
rradius 22.0036
rwrist 11.1814
rhand -17.795 18.205
rfingers 7.12502
rthumb 8.46821 -11.6052
lclavicle 3.99557e-014 -2.10712e-014
lhumerus -20.1322 6.7494 83.7991
lradius 34.4357
lwrist -0.679103
lhand -14.4079 -0.980526
lfingers 7.12502
lthumb 11.7358 28.6707
rfemur -3.64659 2.72548 6.91169
rtibia 30.8513
rfoot -21.6497 -5.88953
rtoes -17.3761
lfemur -3.54541 -22.453 -30.9947
ltibia 33.5992
lfoot -27.3232 7.18211
ltoes 1.21366
1824
root -3.84092 17.1598 -1.35577 -56.8822 -81.5061 49.1638
lowerback 14.5393 -1.98236 -8.2112
upperback 5.41035 -4.16168 -3.04799
thorax -2.04962 -2.25482 2.06873
lowerneck -2.60618 2.32434 -4.7505
upperneck -0.69713 3.21177 -0.0224382
head 0.14006 1.60684 0.801582
rclavicle 2.51463e-014 1.11319e-014
rhumerus -30.5874 4.48918 -93.1951
rradius 22.0493
rwrist 11.2817
rhand -17.6719 18.2075
rfingers 7.12502
rthumb 8.58694 -11.5979
lclavicle 2.51463e-014 1.11319e-014
lhumerus -20.0306 6.69013 84.0367
lradius 34.9894
lwrist -0.451705
lhand -14.4313 -0.929095
lfingers 7.12502
lthumb 11.7132 28.7234
rfemur -3.35595 3.38617 7.25072
rtibia 30.5015
rfoot -21.8868 -6.60799
rtoes -17.4173
lfemur -3.55851 -22.0375 -30.7112
ltibia 33.4532
lfoot -26.9804 6.79103
ltoes 1.23645
1825
root -3.84216 17.1674 -1.36023 -56.1659 -81.5346 48.4456
lowerback 14.5863 -1.97254 -8.21425
upperback 5.38886 -4.15328 -3.02454
thorax -2.09627 -2.24783 2.09721
lowerneck -2.72354 2.30428 -4.6625
upperneck -0.614336 3.19003 -0.120902
head 0.188131 1.59354 0.758672
rclavicle 5.725e-014 1.98785e-014
rhumerus -30.5846 4.76428 -93.1823
rradius 22.1299
rwrist 11.3838
rhand -17.5413 18.233
rfingers 7.12502
rthumb 8.71299 -11.5672
lclavicle 5.725e-014 1.98785e-014
lhumerus -20.0177 6.62193 84.2351
lradius 35.5704
lwrist -0.361549
lhand -14.4716 -0.912099
lfingers 7.12502
lthumb 11.6744 28.7426
rfemur -3.0983 4.11885 7.56319
rtibia 30.202
rfoot -22.1712 -7.35165
rtoes -17.412
lfemur -3.59558 -21.6084 -30.4581
ltibia 33.3247
lfoot -26.6248 6.36291
ltoes 1.33366
1826
root -3.84129 17.1748 -1.36471 -55.312 -81.5649 47.5757
lowerback 14.6735 -1.96634 -8.22137
upperback 5.38316 -4.15322 -2.97789
thorax -2.14481 -2.24579 2.15506
lowerneck -2.90386 2.27272 -4.61962
upperneck -0.524906 3.15731 -0.219768
head 0.248166 1.5743 0.724278
rclavicle 4.05521e-014 7.95139e-015
rhumerus -30.5694 5.19921 -93.1825
rradius 22.2598
rwrist 11.3996
rhand -17.4555 18.2321
rfingers 7.12502
rthumb 8.79584 -11.5646
lclavicle 4.05521e-014 7.95139e-015
lhumerus -20.0232 6.5373 84.474
lradius 36.2057
lwrist -0.312561
lhand -14.5633 -0.860037
lfingers 7.12502
lthumb 11.5859 28.7997
rfemur -2.85037 4.85872 7.90389
rtibia 29.9479
rfoot -22.4702 -8.15128
rtoes -17.4361
lfemur -3.64244 -21.1554 -30.1839
ltibia 33.2239
lfoot -26.2542 5.90294
ltoes 1.32307
